<svg width="362" height="29" viewBox="0 0 362 29" fill="none" xmlns="http://www.w3.org/2000/svg">
<path d="M0.6 14.64C0.6 5.81333 3.82667 1.4 10.28 1.4C12.3067 1.4 14.3867 1.72 16.52 2.36L17.56 2.68V8.48H13.4V5.52C12.44 5.30666 11.5333 5.17333 10.68 5.12H10.28C8.46667 5.12 7.10667 5.82667 6.2 7.24C5.29333 8.65333 4.84 11.12 4.84 14.64C4.89333 18.8 5.37333 21.5467 6.28 22.88C6.76 23.5733 7.30667 24.0533 7.92 24.32C8.53333 24.56 9.32 24.68 10.28 24.68C12.4667 24.7333 14.6533 24.4133 16.84 23.72L17.56 27.2C16.68 27.4933 15.48 27.76 13.96 28C12.4667 28.2667 11.2267 28.4 10.24 28.4C6.98667 28.4533 4.56 27.4133 2.96 25.28C1.38667 23.12 0.6 19.5733 0.6 14.64ZM26.04 24.56C26.7867 24.56 27.6133 24.3867 28.52 24.04C29.4267 23.6933 30.1467 23.3067 30.68 22.88V20.08C29.08 19.9467 27.7733 19.88 26.76 19.88C24.5467 19.88 23.44 20.7067 23.44 22.36C23.44 23.8267 24.3067 24.56 26.04 24.56ZM25.4 28.44C21.1333 28.44 19 26.4133 19 22.36C19 20.2 19.68 18.6933 21.04 17.84C22.4267 16.96 24.3333 16.52 26.76 16.52C27.9067 16.52 29.2133 16.5867 30.68 16.72C30.68 15.12 30.4533 14.0267 30 13.44C29.5467 12.8533 28.76 12.56 27.64 12.56C26.52 12.56 25.2133 12.6933 23.72 12.96C22.2267 13.2267 21.08 13.4933 20.28 13.76L19.52 9.96C22.32 9.10667 25.0533 8.68 27.72 8.68C30.3867 8.68 32.2267 9.26667 33.24 10.44C34.28 11.6133 34.8 13.6 34.8 16.4V24.52L35.24 28.04L31.12 28.44L30.72 26.6C28.48 27.8267 26.7067 28.44 25.4 28.44ZM38.24 28V24.32H42.12V12.68H38.24V9H46.24L46.32 10.92C48.3467 9.77333 50.6667 9.05333 53.28 8.76H54.36V12.76H53.28C50.3467 13.0267 48.0267 13.64 46.32 14.6V24.4H52.28V28H38.24ZM72.44 1.32V24.68L72.84 28L68.8 28.4L68.44 26.56C66.7067 27.8133 65.0133 28.44 63.36 28.44C60.88 28.44 59.0133 27.72 57.76 26.28C56.5067 24.8133 55.88 22.3467 55.88 18.88C55.88 15.4133 56.64 12.8533 58.16 11.2C59.68 9.52 61.6533 8.68 64.08 8.68C65.4933 8.68 66.92 8.98667 68.36 9.6V1.32H72.44ZM63.64 24.6C65.0533 24.6 66.6267 23.88 68.36 22.44V13.52C66.9733 12.8533 65.6133 12.52 64.28 12.52C61.64 12.52 60.32 14.64 60.32 18.88C60.32 22.6933 61.4267 24.6 63.64 24.6ZM81.24 24.56C81.9867 24.56 82.8133 24.3867 83.72 24.04C84.6267 23.6933 85.3467 23.3067 85.88 22.88V20.08C84.28 19.9467 82.9733 19.88 81.96 19.88C79.7467 19.88 78.64 20.7067 78.64 22.36C78.64 23.8267 79.5067 24.56 81.24 24.56ZM80.6 28.44C76.3333 28.44 74.2 26.4133 74.2 22.36C74.2 20.2 74.88 18.6933 76.24 17.84C77.6267 16.96 79.5333 16.52 81.96 16.52C83.1067 16.52 84.4133 16.5867 85.88 16.72C85.88 15.12 85.6533 14.0267 85.2 13.44C84.7467 12.8533 83.96 12.56 82.84 12.56C81.72 12.56 80.4133 12.6933 78.92 12.96C77.4267 13.2267 76.28 13.4933 75.48 13.76L74.72 9.96C77.52 9.10667 80.2533 8.68 82.92 8.68C85.5867 8.68 87.4267 9.26667 88.44 10.44C89.48 11.6133 90 13.6 90 16.4V24.52L90.44 28.04L86.32 28.44L85.92 26.6C83.68 27.8267 81.9067 28.44 80.6 28.44ZM97.24 9L97.32 10.16C99.48 9.17333 101.173 8.68 102.4 8.68C104.56 8.68 106.147 9.32 107.16 10.6C108.2 11.8533 108.72 13.8267 108.72 16.52V28H104.6V16.64C104.6 15.36 104.373 14.36 103.92 13.64C103.467 12.92 102.76 12.56 101.8 12.56C100.84 12.56 99.36 13.0267 97.36 13.96V28H93.24V9H97.24ZM113.12 11.12C114.48 9.49333 116.573 8.68 119.4 8.68C122.227 8.68 124.32 9.49333 125.68 11.12C127.04 12.72 127.72 15.2 127.72 18.56C127.72 21.92 127.04 24.4267 125.68 26.08C124.32 27.7067 122.227 28.52 119.4 28.52C116.573 28.52 114.48 27.7067 113.12 26.08C111.76 24.4267 111.08 21.92 111.08 18.56C111.08 15.2 111.76 12.72 113.12 11.12ZM116.32 13.96C115.787 14.8933 115.52 16.4267 115.52 18.56C115.52 20.6933 115.8 22.24 116.36 23.2C116.92 24.16 117.933 24.64 119.4 24.64C120.867 24.64 121.88 24.16 122.44 23.2C123 22.24 123.28 20.6933 123.28 18.56C123.28 16.4267 123 14.8933 122.44 13.96C121.907 13.0267 120.893 12.56 119.4 12.56C117.907 12.56 116.88 13.0267 116.32 13.96ZM132.2 19.28V15.4H143.44V19.28H132.2ZM147.72 28V1.8H153.96C156.067 1.8 157.76 1.97333 159.04 2.32C160.347 2.66667 161.453 3.32 162.36 4.28C163.267 5.24 163.907 6.57333 164.28 8.28C164.653 9.96 164.84 12.36 164.84 15.48C164.84 18.5733 164.453 21.0667 163.68 22.96C162.933 24.8533 161.8 26.1733 160.28 26.92C158.76 27.64 156.627 28 153.88 28H147.72ZM159 22.68C159.613 21.9867 160.027 21.04 160.24 19.84C160.48 18.6133 160.6 16.96 160.6 14.88C160.6 12.7733 160.507 11.12 160.32 9.92C160.133 8.72 159.733 7.77333 159.12 7.08C158.533 6.36 157.8 5.90667 156.92 5.72C156.04 5.50667 154.787 5.4 153.16 5.4H151.88V24.4H153.08C154.627 24.4 155.84 24.2933 156.72 24.08C157.627 23.84 158.387 23.3733 159 22.68ZM167.04 28V24.32H173V12.68H167.36V9H177.12V24.32H182.76V28H167.04ZM174.84 6.24C174.04 6.24 173.4 6 172.92 5.52C172.467 5.01333 172.24 4.36 172.24 3.56C172.24 2.76 172.48 2.12 172.96 1.64C173.44 1.16 174.08 0.919998 174.88 0.919998C175.707 0.919998 176.333 1.16 176.76 1.64C177.213 2.09333 177.44 2.73333 177.44 3.56C177.44 4.38667 177.213 5.04 176.76 5.52C176.307 6 175.667 6.24 174.84 6.24ZM185.52 27.12L186.4 23.48C188.933 24.28 190.947 24.68 192.44 24.68C193.933 24.68 194.947 24.5333 195.48 24.24C196.013 23.9733 196.28 23.4933 196.28 22.8C196.28 22.1067 196.04 21.6133 195.56 21.32C195.08 21.0267 194.173 20.72 192.84 20.4C190.2 19.76 188.36 19.0533 187.32 18.28C186.28 17.48 185.76 16.1867 185.76 14.4C185.76 10.5867 188.213 8.68 193.12 8.68C195.227 8.68 197.667 9.02667 200.44 9.72L199.68 13.52C197.04 12.7733 195 12.4 193.56 12.4C192.12 12.4 191.147 12.5333 190.64 12.8C190.16 13.04 189.92 13.4667 189.92 14.08C189.92 14.6933 190.16 15.1467 190.64 15.44C191.147 15.7067 192.427 16.12 194.48 16.68C196.533 17.24 198.04 17.8933 199 18.64C199.96 19.36 200.44 20.6 200.44 22.36C200.44 26.3867 197.96 28.4 193 28.4C190.68 28.4 188.187 27.9733 185.52 27.12ZM214.44 15.92V12.64C213.827 12.5333 213.227 12.48 212.64 12.48C210.987 12.48 209.827 12.96 209.16 13.92C208.52 14.88 208.2 16.4 208.2 18.48C208.2 20.56 208.533 22.1067 209.2 23.12C209.893 24.1067 211.093 24.6 212.8 24.6C214.507 24.6 216.253 24.36 218.04 23.88L218.64 27.72C216.773 28.2533 214.773 28.52 212.64 28.52C206.72 28.52 203.76 25.1867 203.76 18.52C203.76 15.08 204.427 12.5733 205.76 11C207.12 9.4 209.373 8.6 212.52 8.6C214.547 8.6 216.493 8.85333 218.36 9.36V15.92H214.44ZM223.52 11.12C224.88 9.49333 226.973 8.68 229.8 8.68C232.627 8.68 234.72 9.49333 236.08 11.12C237.44 12.72 238.12 15.2 238.12 18.56C238.12 21.92 237.44 24.4267 236.08 26.08C234.72 27.7067 232.627 28.52 229.8 28.52C226.973 28.52 224.88 27.7067 223.52 26.08C222.16 24.4267 221.48 21.92 221.48 18.56C221.48 15.2 222.16 12.72 223.52 11.12ZM226.72 13.96C226.187 14.8933 225.92 16.4267 225.92 18.56C225.92 20.6933 226.2 22.24 226.76 23.2C227.32 24.16 228.333 24.64 229.8 24.64C231.267 24.64 232.28 24.16 232.84 23.2C233.4 22.24 233.68 20.6933 233.68 18.56C233.68 16.4267 233.4 14.8933 232.84 13.96C232.307 13.0267 231.293 12.56 229.8 12.56C228.307 12.56 227.28 13.0267 226.72 13.96ZM240.64 28V24.32H244.52V12.68H240.64V9H248.64L248.72 10.92C250.747 9.77333 253.067 9.05333 255.68 8.76H256.76V12.76H255.68C252.747 13.0267 250.427 13.64 248.72 14.6V24.4H254.68V28H240.64ZM274.84 1.32V24.68L275.24 28L271.2 28.4L270.84 26.56C269.107 27.8133 267.413 28.44 265.76 28.44C263.28 28.44 261.413 27.72 260.16 26.28C258.907 24.8133 258.28 22.3467 258.28 18.88C258.28 15.4133 259.04 12.8533 260.56 11.2C262.08 9.52 264.053 8.68 266.48 8.68C267.893 8.68 269.32 8.98667 270.76 9.6V1.32H274.84ZM266.04 24.6C267.453 24.6 269.027 23.88 270.76 22.44V13.52C269.373 12.8533 268.013 12.52 266.68 12.52C264.04 12.52 262.72 14.64 262.72 18.88C262.72 22.6933 263.827 24.6 266.04 24.6ZM279.4 19.28V15.4H290.64V19.28H279.4ZM295.2 28V1.8H303.24C309.053 1.8 311.96 4.06667 311.96 8.6C311.96 10.0667 311.587 11.3333 310.84 12.4C310.093 13.4667 309.08 14.1333 307.8 14.4C309.293 14.6133 310.453 15.2667 311.28 16.36C312.133 17.4267 312.573 18.8267 312.6 20.56C312.6 25.52 309.36 28 302.88 28H295.2ZM303.48 24.4C305.24 24.4 306.493 24.0133 307.24 23.24C307.987 22.4667 308.36 21.44 308.36 20.16C308.36 18.8533 307.947 17.9067 307.12 17.32C306.32 16.7333 305.04 16.44 303.28 16.44H299.36V24.4H303.48ZM307.88 8.92C307.88 6.57333 306.427 5.4 303.52 5.4H299.36V12.84H303.2C306.32 12.84 307.88 11.5333 307.88 8.92ZM315.52 11.12C316.88 9.49333 318.973 8.68 321.8 8.68C324.627 8.68 326.72 9.49333 328.08 11.12C329.44 12.72 330.12 15.2 330.12 18.56C330.12 21.92 329.44 24.4267 328.08 26.08C326.72 27.7067 324.627 28.52 321.8 28.52C318.973 28.52 316.88 27.7067 315.52 26.08C314.16 24.4267 313.48 21.92 313.48 18.56C313.48 15.2 314.16 12.72 315.52 11.12ZM318.72 13.96C318.187 14.8933 317.92 16.4267 317.92 18.56C317.92 20.6933 318.2 22.24 318.76 23.2C319.32 24.16 320.333 24.64 321.8 24.64C323.267 24.64 324.28 24.16 324.84 23.2C325.4 22.24 325.68 20.6933 325.68 18.56C325.68 16.4267 325.4 14.8933 324.84 13.96C324.307 13.0267 323.293 12.56 321.8 12.56C320.307 12.56 319.28 13.0267 318.72 13.96ZM332.56 12.68V9H335.8V4.44L339.92 4.04V9H347.4V12.68H339.92V20.68C339.92 22.1467 340.067 23.1867 340.36 23.8C340.653 24.3867 341.253 24.68 342.16 24.68C343.733 24.68 345.573 24.4267 347.68 23.92L348.36 27.48C346.04 28.0933 343.973 28.4 342.16 28.4C339.6 28.4 337.893 27.8267 337.04 26.68C336.213 25.5333 335.8 23.5333 335.8 20.68V12.68H332.56ZM355.6 28V22.2H361.4V28H355.6Z" fill="#0A093D"/>
</svg>
